HIERARCHY
ROOT Hips
{
	OFFSET 0.000000 0.000000 0.000000
	CHANNELS 6 Xposition Yposition Zposition Zrotation Yrotation Xrotation 
	JOINT LHipJoint
	{
		OFFSET 0.000000 0.000000 0.000000
		CHANNELS 3 Zrotation Yrotation Xrotation
		JOINT LeftUpLeg
		{
			OFFSET 1.363060 -1.794630 0.839290
			CHANNELS 3 Zrotation Yrotation Xrotation
			JOINT LeftLeg
			{
				OFFSET 2.448110 -6.726130 0.000000
				CHANNELS 3 Zrotation Yrotation Xrotation
				JOINT LeftFoot
				{
					OFFSET 2.562200 -7.039590 0.000000
					CHANNELS 3 Zrotation Yrotation Xrotation
					JOINT LeftToeBase
					{
						OFFSET 0.157640 -0.433110 2.322550
						CHANNELS 3 Zrotation Yrotation Xrotation
						End Site
						{
							OFFSET 0.000000 0.000000 0.000000
						}
					}
				}
			}
		}
	}
	JOINT RHipJoint
	{
		OFFSET 0.000000 0.000000 0.000000
		CHANNELS 3 Zrotation Yrotation Xrotation
		JOINT RightUpLeg
		{
			OFFSET -1.305520 -1.794630 0.839290
			CHANNELS 3 Zrotation Yrotation Xrotation
			JOINT RightLeg
			{
				OFFSET -2.542530 -6.985550 0.000000
				CHANNELS 3 Zrotation Yrotation Xrotation
				JOINT RightFoot
				{
					OFFSET -2.568260 -7.056230 0.000000
					CHANNELS 3 Zrotation Yrotation Xrotation
					JOINT RightToeBase
					{
						OFFSET -0.164730 -0.452590 2.363150
						CHANNELS 3 Zrotation Yrotation Xrotation
						End Site
						{
							OFFSET 0.000000 0.000000 0.000000
						}
					}
				}
			}
		}
	}
}
MOTION
Frames: 25
Frame Time: 0.008333
3.393267 17.191392 0.954441 -176.798695 -71.508729 -173.000460 -11.897704 1.659301 -1.238534 -3.378986 27.749222 -13.140104 -2.787978 -1.229234 -0.965085 0.954225 8.198035 0.581791 1.188400 -0.000000 -34.993900 9.075150 -2.090343 4.253160 2.190534 3.645613 -12.554237 2.850312 1.333170 -1.317032 0.597648 4.263729 1.988289 0.365601 0.000000 -46.639700
3.396108 17.192001 0.956564 -176.851249 -71.412610 -172.964616 -11.902286 1.660109 -1.238842 -3.397812 27.795715 -13.168391 -2.789052 -1.230509 -0.896823 0.960486 8.249484 0.553323 1.191100 -0.000000 -34.963100 9.069009 -2.107276 4.287828 2.162105 3.712524 -12.552612 2.851838 1.337095 -1.405464 0.606756 4.320019 2.076567 0.380400 0.000000 -46.623800
3.400735 17.192756 0.958606 -176.916263 -71.349969 -172.926648 -11.906089 1.660327 -1.234847 -3.417586 27.818575 -13.196761 -2.788568 -1.231910 -0.823477 0.966054 8.297999 0.531810 1.194600 0.000000 -34.929400 9.063923 -2.127090 4.320607 2.132971 3.764722 -12.538386 2.851531 1.340570 -1.503363 0.614879 4.358900 2.170022 0.391200 0.000000 -46.608001
3.407331 17.193619 0.960589 -176.991865 -71.326096 -172.888870 -11.908404 1.659956 -1.226705 -3.437782 27.813369 -13.224974 -2.786350 -1.232931 -0.747441 0.970712 8.340735 0.517805 1.198701 -0.000000 -34.894700 9.060603 -2.147913 4.348947 2.104032 3.799016 -12.510593 2.849163 1.343598 -1.608408 0.621704 4.376157 2.265866 0.396800 0.000000 -46.592600
3.415561 17.194679 0.962512 -177.070653 -71.344469 -172.851969 -11.908722 1.659347 -1.213160 -3.458906 27.771399 -13.252397 -2.781766 -1.233553 -0.677469 0.974916 8.380774 0.515469 1.204600 -0.000000 -34.857200 9.059414 -2.168112 4.371462 2.076602 3.815455 -12.472963 2.844528 1.346098 -1.715591 0.626438 4.365155 2.361955 0.395700 0.000000 -46.577400
3.425273 17.195919 0.964497 -177.144719 -71.405243 -172.819066 -11.906494 1.658521 -1.194730 -3.481087 27.691525 -13.281691 -2.775044 -1.233382 -0.617937 0.978537 8.415604 0.525591 1.212100 -0.000001 -34.819300 9.060758 -2.185346 4.385954 2.053158 3.811948 -12.428960 2.838032 1.348465 -1.823053 0.628781 4.324579 2.457296 0.387300 -0.000000 -46.562900
3.436250 17.197240 0.966642 -177.203878 -71.508563 -172.796568 -11.901242 1.656991 -1.174865 -3.502817 27.584024 -13.316240 -2.767778 -1.231911 -0.567822 0.980049 8.431961 0.546207 1.218900 -0.000000 -34.784300 9.065540 -2.197656 4.388673 2.037141 3.780340 -12.377686 2.830658 1.351319 -1.932730 0.629400 4.260594 2.551266 0.373100 0.000000 -46.548899
3.448063 17.198777 0.969115 -177.238842 -71.649278 -172.786359 -11.893058 1.654672 -1.153050 -3.524837 27.445374 -13.357954 -2.759667 -1.229446 -0.537956 0.980146 8.434932 0.581223 1.226500 -0.000000 -34.753100 9.073239 -2.203218 4.379159 2.031358 3.723451 -12.328873 2.822947 1.354859 -2.040256 0.627795 4.171395 2.644654 0.352700 0.000000 -46.535400
3.460262 17.200434 0.972076 -177.237872 -71.822230 -172.793804 -11.882386 1.651416 -1.131328 -3.545737 27.283496 -13.408027 -2.751690 -1.226129 -0.532223 0.978186 8.419027 0.630169 1.233900 -0.000000 -34.729699 9.083645 -2.200971 4.355627 2.039198 3.638228 -12.285134 2.816073 1.359654 -2.145683 0.624790 4.063978 2.737655 0.327700 0.000000 -46.522400
3.472485 17.202261 0.975671 -177.194766 -72.019141 -172.823535 -11.870146 1.647633 -1.110252 -3.564824 27.107003 -13.467948 -2.744601 -1.221992 -0.554218 0.973759 8.380806 0.693654 1.240600 -0.000000 -34.715200 9.095872 -2.190232 4.318032 2.063329 3.523289 -12.250762 2.811163 1.366230 -2.248131 0.620723 3.944889 2.831795 0.299500 -0.000000 -46.509400
3.484264 17.204260 0.980026 -177.102851 -72.230414 -172.879972 -11.857575 1.644263 -1.089561 -3.581146 26.924230 -13.537151 -2.738918 -1.217212 -0.607528 0.966696 8.318862 0.771723 1.246100 0.000000 -34.711700 9.108766 -2.171099 4.267408 2.105804 3.379004 -12.228760 2.809300 1.375093 -2.346591 0.616467 3.820842 2.928310 0.269800 0.000000 -46.496200
3.495399 17.206415 0.985237 -176.960522 -72.445909 -172.967406 -11.845806 1.642396 -1.068328 -3.593916 26.742845 -13.614755 -2.734851 -1.211781 -0.693990 0.957028 8.233275 0.864304 1.250300 0.000000 -34.719900 9.121163 -2.143850 4.205495 2.167735 3.206673 -12.221038 2.811356 1.386578 -2.439572 0.612751 3.698332 3.028068 0.239900 0.000001 -46.482100
3.505625 17.208656 0.991303 -176.768060 -72.656962 -173.087743 -11.835726 1.643287 -1.045609 -3.602221 26.568913 -13.697418 -2.732393 -1.205773 -0.814244 0.944947 8.125501 0.970347 1.252801 0.000000 -34.741400 9.132288 -2.109249 4.134332 2.248600 3.008870 -12.227448 2.817784 1.400805 -2.525178 0.610002 3.582336 3.130370 0.210900 0.000000 -46.467600
3.514838 17.211016 0.998199 -176.526751 -72.856853 -173.242371 -11.827792 1.647841 -1.019923 -3.606252 26.405517 -13.784727 -2.731297 -1.199177 -0.966843 0.930850 7.998389 1.089038 1.253900 0.000000 -34.773900 9.141489 -2.068181 4.056609 2.347717 2.789949 -12.249151 2.828783 1.417808 -2.602065 0.608600 3.475043 3.235301 0.183400 0.000000 -46.451600
3.523060 17.213390 1.005794 -176.242134 -73.041892 -173.429817 -11.821901 1.656509 -0.991029 -3.605859 26.254308 -13.873722 -2.731195 -1.191974 -1.148906 0.915182 7.855188 1.217911 1.253200 -0.000000 -34.817600 9.148873 -2.021395 3.973980 2.462432 2.554739 -12.284251 2.843959 1.437233 -2.668062 0.608625 3.377055 3.340187 0.157400 -0.000000 -46.434601
3.530312 17.215777 1.013917 -175.919729 -73.211836 -173.646186 -11.817537 1.669513 -0.957725 -3.602390 26.110640 -13.964300 -2.731331 -1.184174 -1.356678 0.898749 7.701971 1.355579 1.251500 0.000000 -34.868700 9.154683 -1.969705 3.888521 2.589778 2.309698 -12.332629 2.862583 1.458756 -2.721853 0.609586 3.284601 3.443240 0.131901 -0.000000 -46.415301
3.536648 17.218092 1.022384 -175.565773 -73.368477 -173.886358 -11.813945 1.686808 -0.919769 -3.596457 25.969993 -14.055424 -2.731115 -1.175686 -1.584691 0.882103 7.542610 1.499014 1.248701 0.000000 -34.925700 9.159602 -1.913703 3.801391 2.725545 2.060785 -12.391624 2.883619 1.482015 -2.762623 0.610925 3.192715 3.540761 0.105800 0.000000 -46.393900
3.542359 17.220284 1.030968 -175.191199 -73.516510 -174.142960 -11.810040 1.708288 -0.876428 -3.590134 25.824515 -14.147517 -2.729774 -1.166309 -1.826868 0.865975 7.382431 1.645596 1.245300 0.000001 -34.985200 9.164423 -1.853696 3.713760 2.865031 1.814501 -12.458877 2.905733 1.506575 -2.789541 0.611789 3.094263 3.629367 0.077200 0.000000 -46.370100
3.547431 17.222341 1.039441 -174.803467 -73.661452 -174.407898 -11.804904 1.734134 -0.826334 -3.585463 25.665375 -14.241821 -2.726671 -1.155955 -2.077295 0.850992 7.225928 1.792671 1.241700 -0.000000 -35.044101 9.169869 -1.790251 3.627162 3.003330 1.576667 -12.532103 2.927609 1.532291 -2.803515 0.611491 2.980721 3.706601 0.043900 0.000001 -46.342899
3.552122 17.224197 1.047628 -174.413453 -73.810310 -174.674799 -11.797675 1.764611 -0.768184 -3.584637 25.486364 -14.339808 -2.721474 -1.144351 -2.328645 0.837413 7.074728 1.937344 1.237700 0.000000 -35.100201 9.176552 -1.723881 3.543318 3.135346 1.351900 -12.607370 2.947868 1.558981 -2.805524 0.608901 2.844209 3.769718 0.004000 -0.000001 -46.312500
3.556406 17.225894 1.055364 -174.030711 -73.971411 -174.935481 -11.787875 1.800497 -0.698731 -3.590224 25.278304 -14.442822 -2.713750 -1.131775 -2.576483 0.825675 6.932687 2.078220 1.234000 -0.000000 -35.150600 9.184681 -1.656065 3.465565 3.256336 1.143782 -12.682303 2.965316 1.586723 -2.798473 0.603646 2.677466 3.817617 -0.044500 0.000000 -46.278100
3.560366 17.227401 1.062539 -173.665389 -74.153843 -175.185301 -11.775369 1.842171 -0.615713 -3.604702 25.038735 -14.552711 -2.703875 -1.118596 -2.814644 0.815454 6.798147 2.213642 1.230200 0.000001 -35.194500 9.194150 -1.588913 3.397621 3.362226 0.953594 -12.753190 2.978883 1.615386 -2.785572 0.594957 2.475910 3.849938 -0.102700 -0.000000 -46.239600
3.563894 17.228756 1.069089 -173.324647 -74.367466 -175.419661 -11.760466 1.889402 -0.517256 -3.630280 24.767157 -14.671590 -2.692668 -1.105897 -3.038343 0.806210 6.668847 2.342181 1.226000 -0.000001 -35.231600 9.204480 -1.525586 3.343916 3.449534 0.781405 -12.818070 2.987781 1.644880 -2.771833 0.582593 2.237716 3.867118 -0.170900 -0.000000 -46.197300
3.566900 17.229979 1.074975 -173.015776 -74.621589 -175.631860 -11.743609 1.940488 -0.404184 -3.668896 24.466029 -14.802050 -2.681430 -1.095092 -3.243378 0.797068 6.541046 2.463887 1.221100 0.000000 -35.262300 9.215168 -1.469295 3.307262 3.516352 0.626025 -12.877166 2.991490 1.674807 -2.763026 0.566387 1.964304 3.871433 -0.248400 -0.000000 -46.151100
3.569161 17.231136 1.080220 -172.740277 -74.920514 -175.814267 -11.725194 1.992208 -0.280449 -3.722754 24.139952 -14.948438 -2.671699 -1.087837 -3.427238 0.787173 6.411497 2.578496 1.215000 0.000000 -35.287100 9.225879 -1.422467 3.287836 3.562183 0.486344 -12.934264 2.990003 1.704764 -2.765293 0.546327 1.660184 3.865709 -0.333600 0.000000 -46.101300
